<?xml version="1.0" standalone="no"?>
<!DOCTYPE svg PUBLIC "-//W3C//DTD SVG 20010904//EN"
 "http://www.w3.org/TR/2001/REC-SVG-20010904/DTD/svg10.dtd">
<svg version="1.0" xmlns="http://www.w3.org/2000/svg"
 width="512.000000pt" height="512.000000pt" viewBox="0 0 512.000000 512.000000"
 preserveAspectRatio="xMidYMid meet">
<metadata>
Created by potrace 1.15, written by Peter Selinger 2001-2017
</metadata>
<g transform="translate(0.000000,512.000000) scale(0.100000,-0.100000)"
fill="#000000" stroke="none">
<path d="M0 2560 l0 -2561 385 2 c368 1 385 2 385 20 0 10 9 23 21 29 18 10
19 10 10 -8 -8 -14 -7 -19 5 -19 7 0 12 2 9 5 -8 8 16 43 26 37 5 -4 9 -2 9 4
0 5 -5 11 -12 13 -9 3 -9 6 0 12 7 4 15 1 18 -9 5 -13 10 -10 25 15 11 17 24
28 30 24 6 -3 13 4 16 15 5 18 8 19 22 9 13 -10 13 -9 -1 7 -16 17 -16 19 9
32 30 16 44 17 23 2 -13 -9 -13 -10 0 -6 8 2 17 12 19 22 2 13 -1 16 -14 12
-10 -4 -14 -3 -9 4 3 6 16 9 28 7 12 -3 28 2 35 9 7 7 17 10 23 7 7 -4 8 -2 4
4 -5 9 -13 9 -29 1 -21 -10 -21 -9 2 10 26 23 46 28 35 9 -5 -9 -2 -8 10 1 9
8 13 17 8 20 -5 3 2 17 14 31 13 13 24 19 24 13 0 -6 -6 -14 -13 -16 -9 -4 -9
-6 1 -6 7 -1 15 6 18 14 4 8 10 12 15 9 5 -3 9 5 9 18 0 13 5 30 10 38 8 13
13 13 31 2 20 -13 21 -12 16 7 -3 12 -1 24 4 27 5 3 7 10 4 15 -3 5 2 6 11 2
13 -5 15 -3 9 7 -6 10 -3 12 12 8 17 -4 20 -2 16 16 -4 17 -3 18 6 6 8 -12 11
-12 11 -1 0 7 6 11 15 7 8 -3 14 0 12 7 -1 7 5 11 13 9 11 -2 9 2 -4 13 -18
13 -16 14 20 10 26 -3 34 -2 24 4 -8 5 -19 7 -25 4 -5 -3 -4 0 3 8 7 8 22 15
32 15 37 3 40 4 40 18 0 8 11 23 24 33 13 11 26 28 28 39 2 13 12 19 30 19 15
-1 24 3 22 7 -3 5 2 11 10 14 9 3 16 10 16 16 0 5 -5 6 -10 3 -6 -3 -10 1 -10
10 0 11 5 15 14 12 8 -3 17 -3 19 1 2 4 2 1 1 -5 -5 -21 7 -15 32 15 25 28 32
48 13 36 -8 -4 -8 0 0 15 7 11 16 21 22 21 6 0 7 4 4 10 -4 6 1 7 11 3 13 -5
15 -3 9 7 -5 9 -4 11 4 6 6 -4 9 -11 6 -16 -3 -5 -1 -12 5 -15 6 -4 10 -3 9 2
-4 22 2 35 15 30 10 -4 13 -1 10 7 -3 7 2 16 11 20 9 3 14 10 11 15 -3 5 1 14
9 21 13 11 14 10 9 -4 -5 -12 -2 -15 10 -10 9 3 13 10 10 15 -3 5 -1 9 5 9 5
0 11 -6 14 -12 2 -7 8 0 12 15 4 16 13 26 20 24 6 -3 12 1 12 9 0 7 -4 11 -8
8 -18 -11 -16 14 2 29 18 16 19 16 20 -1 1 -9 1 -24 0 -32 -2 -13 0 -13 8 -1
5 8 7 21 3 29 -3 10 -1 13 7 8 6 -4 11 -4 10 1 -4 24 4 33 27 33 24 0 25 2 13
17 -12 15 -12 16 6 9 11 -4 16 -4 12 0 -12 13 14 35 28 24 9 -7 16 -6 26 6 11
13 10 17 -2 25 -10 6 -6 9 15 9 24 0 27 2 16 15 -11 13 -8 16 19 21 17 4 31
11 31 16 0 5 -4 7 -10 3 -5 -3 -17 -1 -27 4 -10 5 -65 21 -123 36 -58 14 -150
43 -205 64 l-100 38 -3 376 c-1 207 -1 377 2 377 2 0 50 -22 107 -50 179 -85
359 -143 544 -176 110 -19 287 -18 355 2 113 33 165 130 122 226 -36 82 -113
127 -412 238 -323 120 -457 196 -582 328 -120 128 -171 270 -171 477 0 245 81
444 245 601 127 123 294 204 513 250 136 29 503 27 670 -3 124 -23 248 -56
348 -93 l57 -21 0 -370 c0 -203 -2 -369 -4 -369 -2 0 -41 18 -87 39 -209 97
-449 153 -664 155 -131 1 -143 -1 -190 -24 -119 -60 -128 -184 -18 -264 52
-38 139 -75 388 -162 324 -113 451 -195 623 -400 23 -28 32 -34 30 -19 -2 11
3 20 10 21 6 1 15 2 18 3 4 0 0 9 -7 18 -10 11 -10 14 -1 9 7 -4 12 -2 12 7 0
9 9 14 23 13 14 -1 21 4 19 13 -2 8 3 11 13 8 8 -4 15 -2 15 4 0 18 38 51 52
44 7 -3 4 1 -6 9 -15 12 -16 16 -5 16 8 0 21 -6 28 -12 11 -11 13 -10 8 3 -3
9 3 20 14 28 11 6 17 16 14 21 -4 6 1 7 11 3 12 -4 15 -3 10 5 -4 7 -1 12 9
12 9 0 13 -4 10 -10 -3 -5 -4 -10 -1 -10 3 0 10 9 15 19 9 17 8 18 -12 13 -19
-5 -20 -3 -9 11 14 17 42 13 42 -7 0 -6 4 -5 9 3 7 10 4 19 -7 29 -9 7 -12 11
-5 8 6 -4 15 -2 18 4 5 8 12 7 23 -2 13 -11 15 -10 10 10 -5 18 -2 22 18 22
25 0 32 18 13 37 -8 8 -7 13 2 18 8 5 10 4 5 -3 -11 -19 9 -14 37 8 14 11 28
30 30 43 4 18 5 17 6 -6 0 -17 5 -26 12 -22 5 4 8 12 6 18 -2 7 3 18 10 25 11
12 11 17 1 31 -12 14 -11 15 4 2 11 -8 25 -10 35 -6 10 5 21 8 24 7 4 -1 5 8
2 18 -4 17 0 20 25 20 17 0 33 4 36 9 3 4 -6 7 -19 5 -14 -1 -25 1 -25 4 0 12
40 33 51 26 6 -3 9 2 7 12 -2 13 3 19 14 18 10 -1 16 2 13 6 -3 4 6 11 20 14
14 4 25 13 25 22 0 8 4 13 9 10 10 -7 25 22 22 44 -1 11 1 11 9 -2 13 -20 35
-23 46 -6 4 7 3 8 -4 4 -8 -5 -11 1 -10 18 2 17 8 25 18 23 9 -1 14 5 14 15
-1 14 2 15 16 8 15 -8 19 -4 24 25 4 19 12 35 18 35 5 0 7 -7 4 -16 -4 -10 -1
-14 6 -11 7 2 13 12 14 23 2 37 5 39 20 14 12 -21 14 -22 13 -5 -3 28 11 56
24 48 6 -4 8 0 4 10 -4 12 -2 14 10 10 9 -4 14 -2 10 3 -3 6 -1 16 4 24 9 13
10 13 8 0 -1 -8 -1 -24 0 -35 2 -19 3 -19 15 -3 7 10 16 15 19 11 4 -3 7 1 7
11 0 9 -4 15 -9 12 -5 -4 -8 2 -6 11 1 10 10 17 19 17 11 -1 16 7 17 25 l1 26
8 -25 c4 -14 9 -18 9 -10 1 13 3 13 10 1 7 -11 11 -5 16 23 7 33 9 35 20 19
13 -17 14 -16 23 7 5 14 8 28 6 32 -3 4 5 12 16 18 11 6 20 8 20 4 0 -3 7 -1
15 6 8 7 15 18 15 24 0 6 -5 4 -10 -4 -6 -10 -10 -11 -10 -2 0 15 36 52 51 52
5 0 8 4 5 9 -3 5 1 11 9 14 9 4 12 1 9 -7 -3 -8 -1 -17 5 -21 7 -3 11 2 11 14
0 24 16 36 23 19 3 -8 6 -6 6 5 1 9 -4 17 -10 17 -5 0 -7 5 -3 12 5 8 11 6 20
-6 11 -16 13 -16 19 4 4 12 18 25 31 30 13 5 24 15 24 21 0 6 7 9 15 5 19 -7
19 -1 1 17 -13 13 -12 15 10 16 53 3 53 3 43 28 -10 27 -2 30 17 6 13 -17 13
-17 14 0 0 10 5 15 11 11 6 -4 9 1 8 12 -4 22 8 44 22 44 6 0 7 -4 4 -10 -3
-6 1 -7 9 -4 18 7 22 24 5 24 -6 0 -3 7 5 16 9 8 16 19 16 23 0 4 12 14 26 21
21 12 27 12 33 1 6 -9 12 -3 19 19 7 17 16 29 21 25 7 -4 11 202 11 605 l0
610 -2560 0 -2560 0 0 -2560z"/>
</g>
</svg>
